HIERARCHY
ROOT hip
{
  OFFSET 0 0 0
  CHANNELS 6 Xposition Yposition Zposition Zrotation Yrotation Xrotation
  JOINT abdomen
  {
    OFFSET 0 20.6881 -0.73152
    CHANNELS 3 Zrotation Xrotation Yrotation
    JOINT chest
    {
      OFFSET 0 11.7043 -0.48768
      CHANNELS 3 Zrotation Xrotation Yrotation
      JOINT neck
      {
        OFFSET 0 22.1894 -2.19456
        CHANNELS 3 Zrotation Xrotation Yrotation
        JOINT head
        {
          OFFSET -0.24384 7.07133 1.2192
          CHANNELS 3 Zrotation Xrotation Yrotation
          JOINT leftEye
          {
            OFFSET 4.14528 8.04674 8.04672
            CHANNELS 3 Zrotation Xrotation Yrotation
            End Site
            {
              OFFSET 1 0 0
            }
          }
          JOINT rightEye
          {
            OFFSET -3.6576 8.04674 8.04672
            CHANNELS 3 Zrotation Xrotation Yrotation
            End Site
            {
              OFFSET 1 0 0
            }
          }
        }
      }
      JOINT rCollar
      {
        OFFSET -2.68224 19.2634 -4.8768
        CHANNELS 3 Zrotation Xrotation Yrotation
        JOINT rShldr
        {
          OFFSET -8.77824 -1.95073 1.46304
          CHANNELS 3 Zrotation Xrotation Yrotation
          JOINT rForeArm
          {
            OFFSET -28.1742 -1.7115 0.48768
            CHANNELS 3 Zrotation Xrotation Yrotation
            JOINT rHand
            {
              OFFSET -22.5879 0.773209 7.07136
              CHANNELS 3 Zrotation Xrotation Yrotation
              JOINT rThumb1
              {
                OFFSET -1.2192 -0.487915 3.41376
                CHANNELS 3 Zrotation Xrotation Yrotation
                JOINT rThumb2
                {
                  OFFSET -3.37035 -0.52449 3.41376
                  CHANNELS 3 Zrotation Xrotation Yrotation
                  End Site
                  {
                    OFFSET -1.78271 -1.18214 1.43049
                  }
                }
              }
              JOINT rIndex1
              {
                OFFSET -7.75947 0.938293 5.60832
                CHANNELS 3 Zrotation Xrotation Yrotation
                JOINT rIndex2
                {
                  OFFSET -2.54057 -0.884171 1.56538
                  CHANNELS 3 Zrotation Xrotation Yrotation
                  End Site
                  {
                    OFFSET -1.62519 -0.234802 1.16502
                  }
                }
              }
              JOINT rMid1
              {
                OFFSET -8.24714 1.18213 3.41376
                CHANNELS 3 Zrotation Xrotation Yrotation
                JOINT rMid2
                {
                  OFFSET -3.10165 -0.590103 1.0647
                  CHANNELS 3 Zrotation Xrotation Yrotation
                  End Site
                  {
                    OFFSET -2.48547 -0.328903 0.83742
                  }
                }
              }
              JOINT rRing1
              {
                OFFSET -8.82822 0.546677 1.51678
                CHANNELS 3 Zrotation Xrotation Yrotation
                JOINT rRing2
                {
                  OFFSET -2.60934 -0.819778 -0.0198488
                  CHANNELS 3 Zrotation Xrotation Yrotation
                  End Site
                  {
                    OFFSET -2.33842 -0.294052 0.168128
                  }
                }
              }
              JOINT rPinky1
              {
                OFFSET -8.27202 -0.0477905 -0.4584
                CHANNELS 3 Zrotation Xrotation Yrotation
                JOINT rPinky2
                {
                  OFFSET -1.82734 -0.647385 -0.700984
                  CHANNELS 3 Zrotation Xrotation Yrotation
                  End Site
                  {
                    OFFSET -1.69225 -0.51767 -0.607171
                  }
                }
              }
            }
          }
        }
      }
      JOINT lCollar
      {
        OFFSET 2.68224 19.2634 -4.8768
        CHANNELS 3 Zrotation Xrotation Yrotation
        JOINT lShldr
        {
          OFFSET 8.77824 -1.95073 1.46304
          CHANNELS 3 Zrotation Xrotation Yrotation
          JOINT lForeArm
          {
            OFFSET 28.1742 -1.7115 0.48768
            CHANNELS 3 Zrotation Xrotation Yrotation
            JOINT lHand
            {
              OFFSET 22.5879 0.773209 7.07136
              CHANNELS 3 Zrotation Xrotation Yrotation
              JOINT lThumb1
              {
                OFFSET 1.2192 -0.487915 3.41376
                CHANNELS 3 Zrotation Xrotation Yrotation
                JOINT lThumb2
                {
                  OFFSET 3.37035 -0.52449 3.41376
                  CHANNELS 3 Zrotation Xrotation Yrotation
                  End Site
                  {
                    OFFSET 1.78271 -1.18214 1.43049
                  }
                }
              }
              JOINT lIndex1
              {
                OFFSET 7.75947 0.938293 5.60832
                CHANNELS 3 Zrotation Xrotation Yrotation
                JOINT lIndex2
                {
                  OFFSET 2.54057 -0.884171 1.56538
                  CHANNELS 3 Zrotation Xrotation Yrotation
                  End Site
                  {
                    OFFSET 1.62519 -0.234802 1.16502
                  }
                }
              }
              JOINT lMid1
              {
                OFFSET 8.24714 1.18213 3.41376
                CHANNELS 3 Zrotation Xrotation Yrotation
                JOINT lMid2
                {
                  OFFSET 3.10165 -0.590103 1.0647
                  CHANNELS 3 Zrotation Xrotation Yrotation
                  End Site
                  {
                    OFFSET 2.48547 -0.328903 0.83742
                  }
                }
              }
              JOINT lRing1
              {
                OFFSET 8.82822 0.546677 1.51678
                CHANNELS 3 Zrotation Xrotation Yrotation
                JOINT lRing2
                {
                  OFFSET 2.60934 -0.819778 -0.0198488
                  CHANNELS 3 Zrotation Xrotation Yrotation
                  End Site
                  {
                    OFFSET 2.33842 -0.294052 0.168128
                  }
                }
              }
              JOINT lPinky1
              {
                OFFSET 8.27202 -0.0477905 -0.4584
                CHANNELS 3 Zrotation Xrotation Yrotation
                JOINT lPinky2
                {
                  OFFSET 1.82734 -0.647385 -0.700984
                  CHANNELS 3 Zrotation Xrotation Yrotation
                  End Site
                  {
                    OFFSET 1.69225 -0.51767 -0.607171
                  }
                }
              }
            }
          }
        }
      }
    }
  }
  JOINT rButtock
  {
    OFFSET -8.77824 4.35084 1.2192
    CHANNELS 3 Zrotation Xrotation Yrotation
    JOINT rThigh
    {
      OFFSET 0 -1.70687 -2.19456
      CHANNELS 3 Zrotation Xrotation Yrotation
      JOINT rShin
      {
        OFFSET 0 -36.8199 0.73152
        CHANNELS 3 Zrotation Xrotation Yrotation
        JOINT rFoot
        {
          OFFSET 0.73152 -45.1104 -5.12064
          CHANNELS 3 Zrotation Xrotation Yrotation
          End Site
          {
            OFFSET -1.1221 -3.69964 12.103
          }
        }
      }
    }
  }
  JOINT lButtock
  {
    OFFSET 8.77824 4.35084 1.2192
    CHANNELS 3 Zrotation Xrotation Yrotation
    JOINT lThigh
    {
      OFFSET 0 -1.70687 -2.19456
      CHANNELS 3 Zrotation Xrotation Yrotation
      JOINT lShin
      {
        OFFSET 0 -36.8199 0.73152
        CHANNELS 3 Zrotation Xrotation Yrotation
        JOINT lFoot
        {
          OFFSET -0.73152 -45.1104 -5.12064
          CHANNELS 3 Zrotation Xrotation Yrotation
          End Site
          {
            OFFSET 1.1221 -3.69964 12.103
          }
        }
      }
    }
  }
}
MOTION
Frames:	6
Frame Time:	0.00833333
-168.764 64.2985 142.683 0.0 0.0 0.0 -1.09225 -0.00410991 -0.030071 -0.301188 -0.0034657 -0.0521761 -2.45543e-14 -7.95139e-16 -1.11816e-16 -7.37522e-14 3.18055e-15 -2.60905e-16 -0.0 0.0 0.0 -0.0 0.0 0.0 -1.22769e-14 -3.96016e-17 9.93923e-17 -2.56521e-13 -9.87711e-16 -7.95139e-16 -4.44681e-12 1.30462e-12 4.45278e-14 -5.08931e-11 -1.4796e-12 -3.18055e-13 -1.20047e-10 -3.77888e-13 -5.59778e-13 -2.07316e-10 -6.52014e-13 -9.7643e-13 -1.2004e-10 -3.75305e-13 -5.78861e-13 7.73091 5.47488 0.417314 -1.20046e-10 -3.77492e-13 -5.66139e-13 2.90554 0.965183 0.102902 -1.20034e-10 -3.77492e-13 -5.69319e-13 10.2786 0.731801 0.0259123 -1.20048e-10 -3.77691e-13 -5.69319e-13 2.22167 -0.733487 -0.20892 -1.23732e-14 -3.96016e-17 -1.49089e-16 -2.59677e-13 -8.88319e-16 -2.5842e-15 -4.45089e-12 -1.35452e-12 6.36111e-15 -5.08924e-11 1.19917e-12 -2.70347e-13 -1.20054e-10 -3.35314e-13 -5.7568e-13 -2.07319e-10 -5.78861e-13 -9.78816e-13 -1.20061e-10 -3.34753e-13 -5.7568e-13 -7.73091 5.47488 -0.417314 -1.20055e-10 -3.35052e-13 -5.7568e-13 -2.90554 0.965183 -0.102902 -1.20063e-10 -3.3525e-13 -5.73295e-13 -10.2786 0.731801 -0.0259123 -1.20052e-10 -3.34753e-13 -5.725e-13 -2.22167 -0.733487 0.20892 -2.03217e-16 0.0 -3.88251e-19 -0.322457 -1.92007 -0.0117143 -0.00931706 -2.07855 -0.0769797 -0.505554 3.99668 0.139323 2.03217e-16 0.0 3.88251e-19 -1.34 -5.66985 0.118137 -0.000498498 4.71378 -0.0320183 0.521373 0.954254 -0.078931
-168.417 61.296 131.376 -177.327 -0.3269 -174.966 -0.204406 -0.0276799 1.69972 -0.740058 -2.92445 0.342363 -0.431143 -0.769908 -0.617815 1.31799 0.112302 -1.31839 -0.0 0.0 0.0 -0.0 0.0 0.0 -1.99767e-14 -2.17899e-14 -6.03692e-15 -1.76335 11.2209 -1.15662 -6.22684 -3.39021 9.03948 0.0464569 -4.78554 -0.664127 -1.72436e-10 1.415e-10 -5.25931e-11 -2.97347e-10 2.43639e-10 -9.19459e-11 -1.72431e-10 1.41504e-10 -5.26092e-11 7.73091 5.47488 0.417314 -1.72437e-10 1.41502e-10 -5.25985e-11 2.90554 0.965183 0.102902 -1.72427e-10 1.41502e-10 -5.26e-11 10.2786 0.731801 0.0259123 -1.72437e-10 1.41502e-10 -5.25992e-11 2.22167 -0.733487 -0.20892 -2.00937e-14 -2.17895e-14 -6.30015e-15 3.10977 10.9672 -0.017953 5.05077 -2.48885 -7.66692 -0.0321008 -3.97603 0.553945 -2.14722e-10 -1.94647e-10 -2.39722e-11 -3.70735e-10 -3.36768e-10 -4.28726e-11 -2.14728e-10 -1.94648e-10 -2.39676e-11 -7.73091 5.47488 -0.417314 -2.14723e-10 -1.94647e-10 -2.39721e-11 -2.90554 0.965183 -0.102902 -2.1473e-10 -1.94647e-10 -2.39702e-11 -10.2786 0.731801 -0.0259123 -2.14721e-10 -1.94647e-10 -2.39716e-11 -2.22167 -0.733487 0.20892 -2.03217e-16 0.0 -3.88251e-19 -2.42603 -13.9711 -12.8043 0.130022 18.7749 0.220341 -0.725425 -4.15924 -2.06022 2.03217e-16 0.0 3.88251e-19 1.29396 -16.6562 10.4304 -0.0592791 23.7937 -0.309844 0.73614 -7.00249 1.50738
-168.412 61.2464 131.377 -177.326 -0.2797 -174.973 0.735592 -0.0525177 3.53874 -1.16109 -6.01092 0.76566 -0.883474 -1.60213 -1.24736 2.70449 0.247759 -2.67089 -0.0 0.0 0.0 -0.0 0.0 0.0 -3.02639e-14 -4.59872e-14 -1.22967e-14 -3.09713 23.0865 -2.54178 -11.6634 -6.69568 18.6995 -0.0267853 -9.8558 -1.38367 -2.46827e-10 3.1757e-10 -1.05368e-10 -4.25384e-10 5.47018e-10 -1.84444e-10 -2.46824e-10 3.17575e-10 -1.0538e-10 7.73091 5.47488 0.417314 -2.46829e-10 3.17573e-10 -1.05372e-10 2.90554 0.965183 0.102902 -2.46821e-10 3.17573e-10 -1.05372e-10 10.2786 0.731801 0.0259123 -2.46829e-10 3.17574e-10 -1.0537e-10 2.22167 -0.733487 -0.20892 -3.04047e-14 -4.59862e-14 -1.25762e-14 6.4124 22.558 -0.0508895 9.6715 -4.97039 -15.8162 0.0183353 -8.17724 1.14837 -3.34441e-10 -4.12383e-10 -4.63417e-11 -5.77398e-10 -7.13465e-10 -8.32988e-11 -3.34445e-10 -4.12385e-10 -4.63321e-11 -7.73091 5.47488 -0.417314 -3.34441e-10 -4.12384e-10 -4.63415e-11 -2.90554 0.965183 -0.102902 -3.34447e-10 -4.12384e-10 -4.63401e-11 -10.2786 0.731801 -0.0259123 -3.34441e-10 -4.12383e-10 -4.63439e-11 -2.22167 -0.733487 0.20892 -2.03217e-16 0.0 -3.88251e-19 -10.789 -24.5443 -28.2889 -0.0203845 40.8117 0.674505 -1.65524 -12.7461 -4.49584 2.03217e-16 0.0 3.88251e-19 8.73948 -26.8493 23.0196 0.154096 43.9557 -0.763266 1.45854 -15.3933 3.28117
-168.406 61.2145 131.381 -177.314 -0.2606 -174.967 1.57555 -0.0745532 5.15931 -1.49594 -8.76485 1.14346 -1.34327 -2.30865 -1.85478 3.96946 0.336192 -3.95524 -0.0 0.0 0.0 -0.0 0.0 0.0 -3.53762e-14 -6.52905e-14 -1.83095e-14 -3.70059 33.6022 -4.08742 -15.5706 -9.15969 27.4494 -0.202497 -14.3488 -2.04939 -2.77214e-10 4.25257e-10 -1.5666e-10 -4.77409e-10 7.3222e-10 -2.73885e-10 -2.77212e-10 4.25263e-10 -1.5667e-10 7.73091 5.47488 0.417314 -2.77217e-10 4.2526e-10 -1.56663e-10 2.90554 0.965183 0.102902 -2.77211e-10 4.2526e-10 -1.56661e-10 10.2786 0.731801 0.0259123 -2.77217e-10 4.25261e-10 -1.56659e-10 2.22167 -0.733487 -0.20892 -3.55348e-14 -6.52892e-14 -1.86023e-14 9.35326 32.9017 -0.0629765 13.2015 -6.93292 -23.158 0.138637 -11.9236 1.6944 -4.0406e-10 -5.83271e-10 -7.07653e-11 -6.97568e-10 -1.00915e-09 -1.2666e-10 -4.04062e-10 -5.83274e-10 -7.07516e-11 -7.73091 5.47488 -0.417314 -4.04058e-10 -5.83272e-10 -7.07651e-11 -2.90554 0.965183 -0.102902 -4.04064e-10 -5.83272e-10 -7.07641e-11 -10.2786 0.731801 -0.0259123 -4.0406e-10 -5.83271e-10 -7.07699e-11 -2.22167 -0.733487 0.20892 -2.03217e-16 0.0 -3.88251e-19 -23.3957 -30.1395 -44.4008 -0.760954 60.4728 1.58223 -3.13567 -20.3441 -6.87293 2.03217e-16 0.0 3.88251e-19 19.7023 -33.4652 36.4737 0.929781 61.9444 -1.67286 2.57882 -22.8436 5.04266
-168.396 61.1525 131.382 -177.281 -0.23 -174.971 2.16237 -0.0898422 6.23378 -1.70316 -10.689 1.39578 -1.78736 -2.70182 -2.40558 4.91621 0.307927 -5.0691 -0.0 0.0 0.0 -0.0 0.0 0.0 -2.75513e-14 -7.2359e-14 -2.37051e-14 -3.68097 40.801 -5.45086 -17.815 -10.4891 33.6065 -0.386617 -17.4062 -2.52524 -1.97591e-10 3.61984e-10 -2.04246e-10 -3.39406e-10 6.2198e-10 -3.55681e-10 -1.9759e-10 3.6199e-10 -2.04255e-10 7.73091 5.47488 0.417314 -1.97594e-10 3.61988e-10 -2.04249e-10 2.90554 0.965183 0.102902 -1.9759e-10 3.61988e-10 -2.04246e-10 10.2786 0.731801 0.0259123 -1.97594e-10 3.61989e-10 -2.04242e-10 2.22167 -0.733487 -0.20892 -2.77126e-14 -7.23576e-14 -2.40032e-14 11.3443 40.1277 -3.28573e-05 15.3595 -8.10538 -28.3317 0.266407 -14.537 2.08851 -3.4843e-10 -6.3704e-10 -1.00324e-10 -6.01507e-10 -1.10228e-09 -1.7736e-10 -3.4843e-10 -6.37042e-10 -1.00308e-10 -7.73091 5.47488 -0.417314 -3.48427e-10 -6.3704e-10 -1.00324e-10 -2.90554 0.965183 -0.102902 -3.48433e-10 -6.37039e-10 -1.00323e-10 -10.2786 0.731801 -0.0259123 -3.4843e-10 -6.37039e-10 -1.00331e-10 -2.22167 -0.733487 0.20892 -2.03217e-16 0.0 -3.88251e-19 -34.1515 -31.0542 -56.1907 -2.66863 74.1963 3.55357 -4.55597 -25.5985 -8.67568 2.03217e-16 0.0 3.88251e-19 29.496 -36.0316 46.9669 2.77054 74.5027 -3.56604 3.66345 -28.0124 6.4236
-168.39 61.11 131.365 -177.286 -0.2115 -174.984 2.3945 -0.0956515 6.55022 -1.77456 -11.4522 1.45609 -2.19034 -2.65466 -2.87692 5.40868 0.109958 -5.94447 -0.0 0.0 0.0 -0.0 0.0 0.0 5.96396e-15 -5.6596e-14 -2.96527e-14 -3.56754 43.378 -6.01358 -18.5772 -10.8849 35.9722 -0.464264 -18.4341 -2.6911 9.46171e-11 -1.02414e-11 -2.50171e-10 1.65783e-10 -2.20796e-11 -4.32276e-10 9.46191e-11 -1.02362e-11 -2.50183e-10 7.73091 5.47488 0.417314 9.46142e-11 -1.02388e-11 -2.50175e-10 2.90554 0.965183 0.102902 9.4617e-11 -1.02388e-11 -2.50171e-10 10.2786 0.731801 0.0259123 9.46128e-11 -1.02376e-11 -2.50166e-10 2.22167 -0.733487 -0.20892 5.82994e-15 -5.65951e-14 -2.99431e-14 11.9868 43.0035 0.187043 16.1505 -8.51997 -30.3897 0.326937 -15.5671 2.24754 -4.79757e-11 -4.79759e-10 -1.53709e-10 -8.2651e-11 -8.30325e-10 -2.66344e-10 -4.79755e-11 -4.7976e-10 -1.53695e-10 -7.73091 5.47488 -0.417314 -4.79725e-11 -4.79759e-10 -1.5371e-10 -2.90554 0.965183 -0.102902 -4.79792e-11 -4.79758e-10 -1.53709e-10 -10.2786 0.731801 -0.0259123 -4.79752e-11 -4.79758e-10 -1.53716e-10 -2.22167 -0.733487 0.20892 -2.03217e-16 0.0 -3.88251e-19 -38.5774 -30.7026 -60.6749 -4.88867 79.6212 5.78381 -5.14153 -27.6758 -9.29698 2.03217e-16 0.0 3.88251e-19 33.7162 -36.484 51.2375 4.76997 79.4729 -5.57714 4.15121 -30.0408 6.98472
